<svg xmlns="http://www.w3.org/2000/svg" version="1.1" xmlns:xlink="http://www.w3.org/1999/xlink" xmlns:svgjs="http://svgjs.dev/svgjs" width="1000" height="1000" viewBox="0 0 1000 1000"><rect width="1000" height="1000" fill="#000000"></rect><g transform="matrix(0.7,0,0,0.7,149.57575757575756,282.1265587044535)"><svg viewBox="0 0 396 247" data-background-color="#ffffff" preserveAspectRatio="xMidYMid meet" height="623" width="1000" xmlns="http://www.w3.org/2000/svg" xmlns:xlink="http://www.w3.org/1999/xlink"><defs></defs><g id="tight-bounds" transform="matrix(1,0,0,1,0.2400000000000091,-0.09999999999999432)"><svg viewBox="0 0 395.52 247.2" height="247.2" width="395.52"><g><svg></svg></g><g><svg viewBox="0 0 395.52 247.2" height="247.2" width="395.52"><g transform="matrix(1,0,0,1,75.54432,93.30252232481709)"><svg viewBox="0 0 244.43135999999998 60.59495535036582" height="60.59495535036582" width="244.43135999999998"><g><svg viewBox="0 0 347.19050781379457 86.06912516891335" height="60.59495535036582" width="244.43135999999998"><g transform="matrix(1,0,0,1,102.75914781379458,25.360145611870262)"><svg viewBox="0 0 244.43135999999998 35.34883394517282" height="35.34883394517282" width="244.43135999999998"><g><svg viewBox="0 0 244.43135999999998 35.34883394517282" height="35.34883394517282" width="244.43135999999998"><g><svg viewBox="0 0 244.43135999999998 35.34883394517282" height="35.34883394517282" width="244.43135999999998"><g transform="matrix(1,0,0,1,0,0)"><svg width="244.43135999999998" viewBox="6.710000038146973 -35.060001373291016 245.7899932861328 35.55000305175781" height="35.34883394517282" data-palette-color="#2257bf"><path d="M24.07-34.94L24.07-34.94Q28.81-34.94 33.5-33.08L33.5-33.08 32.23-29.64Q27.49-31.27 23.95-31.27L23.95-31.27Q21.02-31.27 18.52-30.11 16.02-28.96 14.37-27.01 12.72-25.07 11.79-22.57 10.86-20.07 10.86-17.33L10.86-17.33Q10.86-14.5 11.85-11.95 12.84-9.4 14.62-7.48 16.41-5.57 19.06-4.44 21.7-3.32 24.85-3.32L24.85-3.32Q28.61-3.32 32.69-4.79L32.69-4.79 33.96-1.71Q28.86 0.49 23.8 0.49L23.8 0.49Q20.68 0.49 17.94-0.42 15.21-1.32 13.17-2.94 11.13-4.57 9.67-6.79 8.2-9.01 7.46-11.68 6.71-14.36 6.71-17.31L6.71-17.31Q6.71-22.31 8.8-26.29 10.89-30.27 14.87-32.6 18.85-34.94 24.07-34.94ZM57-35.06L57-35.06Q60.45-35.06 63.44-33.85 66.43-32.64 68.61-30.44 70.8-28.25 72.04-24.96 73.29-21.68 73.29-17.75L73.29-17.75Q73.29-12.43 71.18-8.29 69.06-4.15 65.32-1.89 61.57 0.37 56.83 0.37L56.83 0.37Q53.71 0.37 50.85-0.74 48-1.86 45.7-3.98 43.41-6.1 42.04-9.53 40.67-12.96 40.67-17.26L40.67-17.26Q40.67-21.29 41.92-24.63 43.16-27.98 45.33-30.26 47.51-32.54 50.51-33.8 53.51-35.06 57-35.06ZM56.78-31.42L56.78-31.42Q54.56-31.42 52.51-30.59 50.46-29.76 48.74-28.16 47.02-26.56 45.98-23.86 44.94-21.17 44.94-17.77L44.94-17.77Q44.94-14.53 45.9-11.78 46.85-9.03 48.48-7.18 50.12-5.32 52.35-4.3 54.59-3.27 57.15-3.27L57.15-3.27Q58.88-3.27 60.56-3.78 62.23-4.3 63.77-5.41 65.31-6.52 66.46-8.13 67.62-9.74 68.32-12.11 69.02-14.48 69.02-17.31L69.02-17.31Q69.02-20.19 68.28-22.58 67.55-24.98 66.34-26.59 65.13-28.2 63.54-29.31 61.94-30.42 60.24-30.92 58.54-31.42 56.78-31.42ZM98.16-35.06L98.16-35.06Q101.61-35.06 104.6-33.85 107.59-32.64 109.77-30.44 111.96-28.25 113.2-24.96 114.45-21.68 114.45-17.75L114.45-17.75Q114.45-12.43 112.34-8.29 110.22-4.15 106.48-1.89 102.73 0.37 97.99 0.37L97.99 0.37Q94.87 0.37 92.01-0.74 89.16-1.86 86.86-3.98 84.57-6.1 83.2-9.53 81.83-12.96 81.83-17.26L81.83-17.26Q81.83-21.29 83.08-24.63 84.32-27.98 86.49-30.26 88.67-32.54 91.67-33.8 94.67-35.06 98.16-35.06ZM97.94-31.42L97.94-31.42Q95.72-31.42 93.67-30.59 91.62-29.76 89.9-28.16 88.18-26.56 87.14-23.86 86.1-21.17 86.1-17.77L86.1-17.77Q86.1-14.53 87.06-11.78 88.01-9.03 89.64-7.18 91.28-5.32 93.51-4.3 95.75-3.27 98.31-3.27L98.31-3.27Q100.04-3.27 101.72-3.78 103.39-4.3 104.93-5.41 106.46-6.52 107.62-8.13 108.78-9.74 109.48-12.11 110.18-14.48 110.18-17.31L110.18-17.31Q110.18-20.19 109.44-22.58 108.71-24.98 107.5-26.59 106.29-28.2 104.69-29.31 103.1-30.42 101.4-30.92 99.7-31.42 97.94-31.42ZM124.82 0L124.82-34.69 128.97-34.69 128.97-3.64 144.55-3.64 144.55 0 124.82 0ZM166.15 0L166.15-34.69 177.6-34.69Q178.41-34.69 178.93-34.68 179.46-34.67 180.46-34.58 181.46-34.5 182.17-34.34 182.87-34.18 183.84-33.85 184.8-33.52 185.49-33.08 186.17-32.64 186.91-31.92 187.66-31.2 188.11-30.32 188.56-29.44 188.85-28.2 189.15-26.95 189.15-25.46L189.15-25.46Q189.15-23.32 188.66-21.61 188.17-19.9 187.4-18.75 186.63-17.6 185.41-16.77 184.19-15.94 183-15.49 181.8-15.04 180.18-14.78 178.55-14.53 177.27-14.45 175.99-14.38 174.3-14.38L174.3-14.38Q172.64-14.38 170.3-14.55L170.3-14.55 170.3 0 166.15 0ZM170.3-31.03L170.3-18.21Q172.64-18.02 174.74-18.02L174.74-18.02Q175.94-18.02 176.75-18.04 177.55-18.07 178.72-18.21 179.89-18.36 180.68-18.62 181.46-18.87 182.34-19.38 183.22-19.9 183.74-20.59 184.26-21.29 184.61-22.35 184.95-23.41 184.95-24.78L184.95-24.78Q184.95-26.2 184.58-27.28 184.22-28.37 183.52-29.03 182.82-29.69 182.06-30.11 181.29-30.54 180.2-30.73 179.11-30.91 178.3-30.97 177.48-31.03 176.35-31.03L176.35-31.03 170.3-31.03ZM219.17 0L198.84 0 198.84-34.69 219.17-34.69 219.17-31.03 202.99-31.03 202.99-19.7 217.83-19.7 217.83-16.04 202.99-16.04 202.99-3.66 219.17-3.66 219.17 0ZM225.15-31.03L225.15-34.69 252.5-34.69 252.5-31.03 240.9-31.03 240.9 0 236.75 0 236.75-31.03 225.15-31.03Z" opacity="1" transform="matrix(1,0,0,1,0,0)" fill="#ffffff" class="undefined-text-0" data-fill-palette-color="primary" id="text-0"></path></svg></g></svg></g></svg></g></svg></g><g><svg viewBox="0 0 86.06912516891335 86.06912516891335" height="86.06912516891335" width="86.06912516891335"><g><svg></svg></g><g id="icon-0"><svg viewBox="0 0 86.06912516891335 86.06912516891335" height="86.06912516891335" width="86.06912516891335"><g><path d="M0 43.035c0-23.767 19.267-43.035 43.035-43.035 23.767 0 43.035 19.267 43.034 43.035 0 23.767-19.267 43.035-43.034 43.034-23.767 0-43.035-19.267-43.035-43.034zM43.035 82.881c22.007 0 39.847-17.84 39.846-39.846 0-22.007-17.84-39.847-39.846-39.847-22.007 0-39.847 17.84-39.847 39.847 0 22.007 17.84 39.847 39.847 39.846z" data-fill-palette-color="accent" fill="#ffffff" stroke="transparent"></path></g><g transform="matrix(1,0,0,1,18.13054042477549,32.692419342371636)"><svg viewBox="0 0 49.80804431936237 20.684286484170073" height="20.684286484170073" width="49.80804431936237"><g><svg xmlns="http://www.w3.org/2000/svg" viewBox="-2.682209014892578e-7 0 100 41.52800369262695" xml:space="preserve" width="49.80804431936237" height="20.684286484170073" x="0" y="0" class="icon-x-0" data-fill-palette-color="accent" id="x-0"><path d="M100 17.384v4.828c0 0.352-0.176 0.703-0.439 0.791-2.37 0.965-5.092 4.39-7.023 7.638-3.6 6.585-10.448 10.887-18.086 10.887-1.668 0-3.424-0.264-5.18-0.702-5.269-1.405-9.658-4.829-12.292-9.657-1.58-2.722-2.458-5.795-2.634-8.868v-2.019c0-2.371-1.932-4.302-4.39-4.302a4.309 4.309 0 0 0-4.302 4.302V22.3c-0.176 3.073-1.054 6.146-2.634 8.868-2.722 4.828-7.112 8.252-12.38 9.657-1.668 0.438-3.424 0.702-5.18 0.702-7.551 0-14.486-4.302-17.998-10.887-1.932-3.248-4.653-6.673-7.024-7.638-0.262-0.087-0.438-0.439-0.438-0.79v-4.828c0-0.439 0.351-0.878 0.79-0.878h0.438c2.107 0 3.951-1.492 5.531-4.653 0.264-0.439 0.527-0.966 0.79-1.493 2.722-4.829 7.112-8.253 12.38-9.658C21.598 0.263 23.354 0 25.109 0c6.849 0 13.17 3.512 16.945 9.131v-0.088 0.088c0.087 0.175 0.175 0.263 0.351 0.439 0.264 0.439 0.878 0.79 1.668 0.439 1.669-1.229 3.688-2.195 5.883-2.195 2.194 0 4.214 0.965 5.97 2.195 0.79 0.351 1.317 0 1.668-0.439 0.088-0.176 0.264-0.264 0.352-0.439v-0.088 0.088C61.721 3.512 67.954 0 74.89 0c1.756 0 3.425 0.263 5.181 0.702 5.268 1.405 9.657 4.829 12.291 9.658 0.352 0.527 0.614 0.966 0.79 1.493 1.844 3.336 3.512 4.653 5.531 4.653h0.439c0.439-0.001 0.878 0.438 0.878 0.878z m-61.106-0.264C37.138 10.799 31.519 6.321 25.11 6.321c-1.229 0-2.37 0.175-3.512 0.527-7.551 2.019-11.94 9.833-9.833 17.559 1.668 6.321 7.287 10.799 13.696 10.799 1.229 0 2.37-0.176 3.6-0.438 3.6-0.966 6.585-3.337 8.429-6.673 1.93-3.336 2.369-7.199 1.404-10.975zM78.402 6.848a12.147 12.147 0 0 0-3.513-0.527c-6.409 0-12.115 4.478-13.783 10.799-0.966 3.775-0.527 7.639 1.316 10.975s4.917 5.707 8.517 6.673c1.142 0.263 2.37 0.438 3.512 0.438 6.409 0 12.116-4.478 13.784-10.799 2.107-7.726-2.371-15.54-9.833-17.559z" fill="#ffffff" data-fill-palette-color="accent"></path></svg></g></svg></g></svg></g></svg></g></svg></g></svg></g><path d="M202.717 87.303L202.717 22.247 0.01 22.247 0.01 224.953 202.717 224.953 202.717 159.897 200.472 159.897 200.472 222.709 2.255 222.709 2.255 24.491 200.472 24.491 200.472 87.303Z" fill="#ffffff" stroke="transparent" data-fill-palette-color="primary"></path></svg></g></svg><rect width="395.52" height="247.2" fill="none" stroke="none" visibility="hidden"></rect></g></svg></g></svg>